<?xml version="1.0" standalone="no"?>
<!DOCTYPE svg PUBLIC "-//W3C//DTD SVG 1.1//EN" "http://www.w3.org/Graphics/SVG/1.1/DTD/svg11.dtd" >
<svg>
<metadata>
Created by FontForge 20090622 at Thu Jun  7 10:48:15 2018
 By ffonts
</metadata>
<defs>
<font id="NFNGroteskBold" horiz-adv-x="349" >
  <font-face 
    font-family="No Fancy Name Grotesk"
    font-weight="700"
    font-stretch="normal"
    units-per-em="1000"
    panose-1="0 0 0 0 0 0 0 0 0 0"
    ascent="750"
    descent="-250"
    x-height="445"
    cap-height="700"
    bbox="-51.6667 -238 934.778 835"
    underline-thickness="50"
    underline-position="-50"
    unicode-range="U+0020-U+2212"
  />
<missing-glyph horiz-adv-x="400" 
 />
    <glyph glyph-name=".notdef" horiz-adv-x="400" 
 />
    <glyph glyph-name="parenright" unicode=")" 
d="M82 12q-11 9 -3 22l10 15q38 58 59 131q14 47 21 89t8 82q0 78 -25 169q-20 75 -56 132l-10 16q-7 12 4 21l36 26q5 5 11.5 3.5t10.5 -6.5l12 -16q21 -27 40.5 -65.5t35 -83.5t25.5 -95t10 -99v-2v-1v-6q-3 -93 -40 -193q-16 -45 -36.5 -82.5t-42.5 -65.5l-12 -15
q-6 -6 -13 -6q-6 0 -10 3l-35 27v0z" />
    <glyph glyph-name="asterisk" unicode="*" horiz-adv-x="338" 
d="M335 294q6 -4 3 -11l-27 -45q-1 -2 -5 -4q-2 -1 -6 1l-97 56v-112q0 -9 -8 -9h-53q-8 0 -8 9v112l-97 -56q-4 -2 -6 -1q-4 2 -5 4l-26 45q-5 7 3 11l97 56l-97 57q-8 4 -3 11l26 45q1 2 5 4q2 1 6 -1l97 -56v112q0 8 8 8h53q8 0 8 -8v-112l97 56q4 2 6 1q4 -2 5 -4
l26 -45q2 -3 1 -6t-3 -5l-98 -57l98 -56v0z" />
    <glyph glyph-name="plus" unicode="+" horiz-adv-x="414" 
d="M9 313q-9 0 -9 8v57q0 8 9 8h162v162q0 8 8 8h57q8 0 8 -8v-162h162q8 0 8 -8v-57q0 -8 -8 -8h-162v-162q0 -9 -8 -9h-57q-8 0 -8 9v162h-162v0z" />
    <glyph glyph-name="hyphen" unicode="-" horiz-adv-x="500" 
d="M103 315q-8 0 -8 8v57q0 8 8 8h292q8 0 8 -8v-57q0 -8 -8 -8h-292v0z" />
    <glyph glyph-name="minus" unicode="&#x2212;" horiz-adv-x="309" 
d="M8 315q-8 0 -8 8v57q0 8 8 8h292q8 0 8 -8v-57q0 -8 -8 -8h-292v0z" />
    <glyph glyph-name="slash" unicode="/" horiz-adv-x="790" 
d="M689 693q4 -8 -2 -15l-506 -672q-5 -6 -12 -6h-52q-8 0 -13 8q-4 7 1 16l505 672q4 6 12 6h53q9 0 14 -9z" />
    <glyph glyph-name="seven" unicode="7" horiz-adv-x="380" 
d="M365 700q10 0 14 -7q5 -6 1 -15l-274 -668q-5 -10 -15 -10h-66q-8 0 -13 8q-5 7 -2 15l240 584h-234q-16 0 -16 16v61q0 16 16 16h349v0z" />
    <glyph glyph-name="S" unicode="S" horiz-adv-x="463" 
d="M4 78q-4 4 -4.5 10.5t4.5 10.5l30.5 24t18.5 16q2 2 6 3q7 2 14 -4q10 -8 24.5 -18t33 -18t41 -13t48.5 -3q66 6 100 26q31 20 38 34q4 8 10 27.5t-1 42.5q-7 16 -17.5 29.5t-33.5 26.5l-203 95q-49 29 -69 60t-26 57q-5 21 -4.5 41.5t5 38.5t11.5 31.5t13 21.5
q64 91 195 91q34 -2 62 -10t50.5 -19.5t39.5 -23.5t28 -22q5 -5 3.5 -12t-6.5 -12l-24 -19q-9 -8 -17.5 -14t-9.5 -7q-2 -2 -7 -4t-11 5q-17 13 -44.5 28t-63.5 15q-31 0 -52 -5.5t-34.5 -13t-20.5 -15.5t-10 -13q-3 -7 -9.5 -24t-3.5 -37q7 -31 47 -55l203 -94l5 -2
q24 -13 41 -29t27.5 -32t17 -31.5t9.5 -28.5q5 -23 4.5 -44.5t-4 -39.5t-9.5 -32t-12 -22q-7 -10 -20 -25.5t-37.5 -31.5t-62 -29t-92.5 -18h-18q-41 0 -74 10t-58.5 24t-43 28.5t-27.5 24.5z" />
    <glyph glyph-name="one" unicode="1" horiz-adv-x="163" 
d="M87 0q-16 0 -16 16v591h-55q-16 0 -16 16v61q0 16 16 16h132q16 0 16 -16v-668q0 -16 -16 -16h-61v0z" />
    <glyph glyph-name="X" unicode="X" horiz-adv-x="611" 
d="M606 26q7 -9 2 -17q-5 -9 -15 -9h-76q-9 0 -13 6l-202 268l-198 -267q-4 -7 -13 -7h-76q-11 0 -15 9q-4 10 2 17l242 326l-242 322q-6 7 -2 17q4 9 15 9h76q8 0 13 -6l198 -263l195 262q4 7 13 7h76q11 0 14 -9q5 -9 -1 -17l-238 -322z" />
    <glyph glyph-name="x" unicode="x" horiz-adv-x="425" 
d="M101 7q-1 -2 -3 -4q-3 -3 -10 -3h-72q-11 0 -14.5 9.5t1.5 17.5q1 1 8 10.5l17.5 24l24.5 32.5l28 37l75 99l-69 92l-26 34l-23 30.5l-17 22.5t-8 11q-5 7 -2 16.5t15 9.5h72q3 0 5 -1l4 -2q2 -2 4 -3l101 -135l102 135l3 3q2 1 4.5 2t5.5 1h72q13 0 15.5 -9.5
t-2.5 -16.5q-1 -2 -8 -11l-17 -22.5l-23 -30.5l-26 -34l-69 -92l74 -98l27.5 -37l24.5 -33l18 -24.5t9 -11.5q6 -8 2 -17t-15 -9h-72q-7 0 -10 3q-2 2 -3 4l-112 148z" />
    <glyph glyph-name="w" unicode="w" horiz-adv-x="682" 
d="M665 445q9 0 14.5 -7t1.5 -16l-27 -63.5l-37 -88l-40.5 -96.5l-37 -89l-27 -65.5l-10.5 -25.5q-5 -8 -15 -8q-11 0 -14 8l-13 30.5l-32.5 76.5l-42.5 101l-44 105l-43.5 -105l-42 -101l-32.5 -76.5l-13 -30.5q-3 -8 -14 -8q-5 0 -9 2t-6 6l-10.5 25.5l-27.5 65.5
l-37.5 88.5l-40.5 96l-37 88.5l-26 64q-4 10 2 16.5t14 6.5h64q5 0 7.5 -1.5t4.5 -3.5q2 -3 4 -5l98 -233l97 230q3 9 10 12h1v1h1h4h65q10 0 17 -13l96 -230l98 233q0 2 3 5q5 5 13 5h64v0z" />
    <glyph glyph-name="four" unicode="4" horiz-adv-x="472" 
d="M456 265q16 0 16 -16v-63q0 -16 -16 -16h-37v-154q0 -16 -16 -16h-62q-7 0 -12 4.5t-5 11.5v154h-309q-9 0 -14 9q-4 9 2 17l387 506q8 9 18 5q11 -3 11 -15v-427h37zM173 265h151v193z" />
    <glyph glyph-name="three" unicode="3" horiz-adv-x="421" 
d="M339 373q39 -29 60.5 -72.5t21.5 -94.5q0 -42 -16 -80.5t-45 -68.5q-29 -29 -66 -45t-78 -17q-2 -1 -5 -1h-1q-3 0 -5 1q-39 1 -74.5 15.5t-62.5 39.5t-45 59t-22 73l-3 22q0 9 4 13q5 5 12 5h62q14 0 16 -14l3 -17q3 -22 13 -40.5t25.5 -32t35 -21.5t41.5 -8q50 0 83 35
q34 34 34 82q0 23 -8.5 43.5t-23 36.5t-34.5 25.5t-43 11.5l-19 1q-15 0 -15 16v60q0 14 15 16l19 1q38 3 64.5 31t25.5 67q0 41 -28.5 69.5t-69.5 28.5q-38 0 -65.5 -25t-31.5 -62l-2 -18q-1 -6 -5.5 -10.5t-10.5 -4.5h-61q-8 0 -12 6q-4 4 -4 12l2 22q3 37 19.5 68.5
t42 54.5t58.5 36.5t70 13.5q40 0 75 -15t61 -41t41 -61t15 -74q0 -41 -17 -78t-46 -64z" />
    <glyph glyph-name="eight" unicode="8" horiz-adv-x="423" 
d="M340 374q39 -30 61 -73.5t22 -94.5q0 -44 -16.5 -82t-45.5 -67t-67.5 -45.5t-82.5 -16.5t-82 16.5t-67 45.5t-45.5 67t-16.5 82q0 51 22 94.5t61 73.5q-30 27 -46.5 64t-16.5 78q0 39 15 73.5t41 60.5t61 41.5t74 15.5q40 0 75 -15t61 -41t41 -61t15 -74q0 -41 -16.5 -78
t-46.5 -64zM211 323q-24 0 -45.5 -9t-37 -25t-25 -37.5t-9.5 -45.5t9.5 -45.5t25 -37t37 -25t45.5 -9.5t45 9t38 26q34 34 34 82q0 24 -9 45.5t-25 37.5t-37.5 25t-45.5 9zM216 418q39 1 66.5 29t27.5 69q0 20 -8 37.5t-21.5 31t-31.5 21.5t-38 8t-38 -8t-31.5 -21.5
t-21 -31t-7.5 -37.5q0 -41 27.5 -69t67.5 -30z" />
    <glyph glyph-name="question" unicode="?" horiz-adv-x="442" 
d="M227 114q25 0 42 -17.5t17 -42.5q0 -24 -17 -41.5t-42 -17.5t-42 17.5t-17 41.5q0 25 17 42.5t42 17.5zM258 707q39 0 72.5 -14.5t59 -40t40 -59.5t14.5 -73q0 -37 -13.5 -70.5t-39.5 -59.5v-1l-100 -100q-10 -9 -13 -18.5t-3 -30.5v-68q0 -16 -16 -16h-64q-16 0 -16 16
v68q0 11 0.5 26t5.5 30q8 32 32 57l105 105q12 13 19 29t7 33q0 38 -26.5 64t-63.5 26q-18 0 -33.5 -6.5t-28 -18t-20 -26.5t-8.5 -33l-1 -19q-2 -15 -16 -15h-64q-7 0 -12 5t-5 12l2 22q2 37 17.5 69t40.5 56t58 37.5t70 13.5z" />
    <glyph glyph-name="W" unicode="W" horiz-adv-x="935" 
d="M932 694q5 -6 1 -15l-273 -675q-3 -11 -15 -11q-10 0 -15 11l-164 407l-165 -407q-3 -11 -15 -11t-15 11l-273 675q-3 8 2 15q4 7 13 7h66q12 0 15 -10l192 -475l129 320l-58 143q-3 8 2 15q4 7 13 7h66q10 0 15 -10l192 -475l192 475q5 10 15 10h66q10 0 14 -7z" />
    <glyph glyph-name="zero" unicode="0" horiz-adv-x="471" 
d="M439 551q31 -75 31 -201q0 -125 -30 -200q-32 -78 -86 -116q-27 -20 -58 -30t-64 -10q-67 0 -121 39q-52 37 -82 113q-29 75 -29 204q0 130 29 203q29 75 82 114q54 39 121 39q68 0 122 -39q55 -40 85 -116zM376 349q0 92 -20 154q-20 57 -53 83q-32 25 -69 25
q-38 0 -70 -25q-33 -25 -51 -77q-18 -54 -18 -160q0 -108 18 -160t51 -77q34 -26 70 -26t69 25q31 24 50 77q23 67 23 161z" />
    <glyph glyph-name="B" unicode="B" horiz-adv-x="486" 
d="M382 375q42 -24 69 -62q34 -53 34 -112q0 -42 -16 -78.5t-43 -63.5t-63.5 -43t-77.5 -16h-269q-7 0 -12 5q-4 4 -4 12v667q0 8 4 12t12 4h217q41 0 77 -15.5t62.5 -42t42 -62.5t15.5 -76q0 -73 -48 -129zM235 401q21 0 39.5 8t32 22t21.5 33t8 40t-8 40t-22 33t-33 22
t-40 8h-140v-206h142zM93 94h192q22 0 41.5 8.5t34 23t23 34t8.5 41.5t-8.5 41t-23 33.5t-34 23t-41.5 8.5h-192v-213z" />
    <glyph glyph-name="b" unicode="b" horiz-adv-x="477" 
d="M0 624q0 7 5 11.5t11 4.5h61q16 0 16 -16v-217q31 25 69 39t80 14q49 0 92 -18.5t75 -50.5t50.5 -74.5t18.5 -91.5t-18.5 -92t-50.5 -75t-75 -50.5t-92 -18.5q-42 0 -80 14t-69 40v-27q0 -16 -16 -16h-61q-6 0 -11 4.5t-5 11.5v608zM242 373q-31 0 -58.5 -11t-48.5 -30.5
t-33.5 -46.5t-12.5 -60t12.5 -60t33.5 -47t48.5 -31t58.5 -11t58 11.5t47 32t32 47.5t12 58t-12 58t-32 47t-47 31.5t-58 11.5z" />
    <glyph glyph-name="two" unicode="2" horiz-adv-x="451" 
d="M18 457q-7 0 -12 5t-5 12l2 22q2 45 20.5 83.5t48.5 67t69.5 45t84.5 16.5q46 0 86.5 -17.5t71 -48t48 -71t17.5 -86.5v-9q-3 -77 -52 -135l-202 -246h238q16 0 16 -16v-63q0 -16 -16 -16h-406q-10 0 -15 10q-4 9 3 17l29 34l110.5 133l88.5 107l61 75t29 38q21 31 21 71
q0 26 -10 49.5t-27.5 41t-40.5 27.5t-50 10q-26 0 -48.5 -9.5t-39.5 -25.5t-28 -38.5t-12 -47.5l-2 -20q0 -6 -4.5 -10.5t-11.5 -4.5h-62v0z" />
    <glyph glyph-name="R" unicode="R" horiz-adv-x="487" 
d="M486 21q4 -7 1.5 -14t-10.5 -7h-74q-4 0 -9 1.5t-8 6.5l-178 308h-115v-299q0 -7 -4 -12t-12 -5h-61q-6 0 -11 4t-5 12v669q0 8 5.5 11.5t11.5 3.5h218q58 0 95.5 -15.5t63.5 -42.5q27 -27 41 -61t14 -72t-14 -73t-41 -62q-34 -36 -83 -50zM93 408h150q38 0 55.5 9
t30.5 22q28 30 28 70q0 39 -28 70q-14 14 -32 21.5t-49 7.5h-155v-200z" />
    <glyph glyph-name="r" unicode="r" horiz-adv-x="239" 
d="M224 445q6 0 11 -4.5t5 -11.5v-59q0 -7 -5 -11.5t-11 -4.5h-26h-6q-42 0 -71 -26t-29 -83v-198v-30q0 -16 -16 -16h-60q-16 0 -16 16v414q0 6 4.5 10.5t11.5 4.5h59q7 0 11.5 -4.5t4.5 -10.5v-23q22 17 47 27t54 10h1h31v0z" />
    <glyph glyph-name="v" unicode="v" horiz-adv-x="468" 
d="M366 435q1 2 4 5q2 2 4.5 3.5t7.5 1.5h69q11 0 15.5 -9t0.5 -16l-32 -62l-43.5 -84.5l-48.5 -93l-45 -86.5l-33.5 -65t-15.5 -29q-5 -11 -15 -9.5t-14 9.5l-14 27l-33.5 63.5l-45 86l-48.5 93.5l-44.5 86l-32.5 63q-5 11 1 18.5t14 7.5h70q7 0 12 -5q2 -3 3 -5l132 -255
l132 255v0z" />
    <glyph glyph-name="Y" unicode="Y" horiz-adv-x="607" 
d="M589 700q10 0 15 -8q5 -10 -2 -17l-239 -323v-335q0 -7 -4.5 -12t-11.5 -5h-61q-7 0 -11.5 5t-4.5 12v334l-267 323q-6 8 -2 17t15 9h79q7 0 12 -5l208 -251l185 250q4 6 13 6h76v0z" />
    <glyph glyph-name="y" unicode="y" horiz-adv-x="421" 
d="M419 446q5 -6 1 -14l-140 -347l-39 -101q-2 -4 -9.5 -20.5t-23 -40.5t-40 -52t-60.5 -54q-5 -3 -10 -3q-7 0 -12 5l-2 4l-37 42q-2 2 -2 4q-2 4 -2 7q0 7 5 12q1 0 3 2q27 20 45.5 42t30.5 40.5t18 31t6 13.5v1l10 24l-158 390q-3 7 2 14t12 7h63q10 0 15 -10l117 -290
l117 290q3 10 14 10h63q8 0 13 -7z" />
    <glyph glyph-name="P" unicode="P" horiz-adv-x="410" 
d="M213 700q40 0 76 -15.5t63 -42t42.5 -62.5t15.5 -76q0 -41 -15.5 -77t-42.5 -62.5t-63 -42t-76 -15.5h-119v-291q0 -7 -5 -11.5t-11 -4.5h-61q-7 0 -12 4.5t-5 11.5v668q0 7 5 11.5t12 4.5h196zM316 504q0 21 -8 39.5t-22 33t-33 22.5t-40 8h-119v-207h119q21 0 40 8
t33 22.5t22 33.5t8 40z" />
    <glyph glyph-name="p" unicode="p" horiz-adv-x="477" 
d="M0 430q0 7 5 11.5t11 4.5h61q16 0 16 -16v-27q31 26 69 40t80 14q49 0 92 -18.5t75 -50.5t50.5 -75t18.5 -92t-18.5 -91.5t-50.5 -74.5t-75 -50.5t-92 -18.5q-42 0 -80 14t-69 39v-217q0 -16 -16 -16h-61q-6 0 -11 4.5t-5 11.5v608zM242 73q31 0 58 11.5t47 31.5t32 47
t12 58t-12 58t-32 47t-47 32t-58 12t-58.5 -11t-48.5 -31t-33.5 -47t-12.5 -60t12.5 -60t33.5 -46.5t48.5 -30.5t58.5 -11z" />
    <glyph glyph-name="M" unicode="M" horiz-adv-x="796" 
d="M786 683q10 -5 10 -15v-652q0 -16 -16 -16h-61q-7 0 -12 4.5t-5 11.5v462l-245 -253q-5 -5 -12 -5t-12 5l-244 254v-463q0 -16 -16 -16h-61q-16 0 -16 16v561l-93 96q-8 8 -3 17q3 10 15 10h85q6 0 11 -5l335 -348l322 332q7 7 18 4z" />
    <glyph glyph-name="m" unicode="m" horiz-adv-x="710" 
d="M655 414q26 -23 41 -59t15 -90v-249q0 -16 -16 -16h-59q-16 0 -16 16v249q0 52 -26 75.5t-62 25.5q-6 1 -12 0.5t-12 -1.5q-21 -2 -40 -10t-34 -23.5t-24 -39.5t-9 -58v-218q0 -16 -16 -16h-59h-1q-6 0 -10 4q-5 5 -5 12v249q0 52 -26 75.5t-62 25.5q-6 1 -12 0.5
t-12 -1.5q-21 -2 -40 -10t-34 -23.5t-24 -39.5t-9 -58v-218q0 -16 -16 -16h-60q-6 0 -10.5 4.5t-4.5 11.5v413q0 6 4.5 11t10.5 5h60q7 0 11.5 -5t4.5 -11v-26q15 17 34.5 29t39.5 18q11 3 24 5t30 2h22q23 -2 41.5 -8.5t32.5 -14.5q16 -9 30 -20q21 -19 34 -44q2 6 6 12
t8 11l8 10q15 17 34.5 29t39.5 18q11 3 24 5t30 2h22q23 -2 41.5 -8.5t32.5 -14.5q16 -9 30 -20z" />
    <glyph glyph-name="a" unicode="a" horiz-adv-x="481" 
d="M481 16q0 -16 -16 -16h-61q-7 0 -12 4.5t-5 11.5v23q-30 -25 -68.5 -39.5t-81.5 -14.5q-49 0 -92 18.5t-75 51t-50.5 75.5t-18.5 92t18.5 92t50.5 75.5t75 51t92 18.5q43 0 81.5 -14t68.5 -40v26q0 7 5 11.5t12 4.5h61q16 0 16 -16v-415zM237 73q31 0 59 11t49.5 31
t34 47t12.5 60t-12.5 60.5t-34 47.5t-49.5 31t-59 11t-58 -12t-47.5 -32t-32 -47.5t-11.5 -58.5t11.5 -58t32 -47.5t47.5 -32t58 -11.5z" />
    <glyph glyph-name="five" unicode="5" horiz-adv-x="437" 
d="M3 100q-4 5 -4 13q2 7 7 10l50 35q5 4 11.5 3t10.5 -6l12 -15q20 -26 49.5 -40t61.5 -14q29 0 55 11t45 30.5t30 45.5t11 55t-11 54.5t-30 45t-45 30.5t-55 11h-145q-9 0 -13 6q-5 5 -3 13l59 300q2 13 15 13h299q7 0 12 -4.5t5 -11.5v-61q0 -7 -5 -12t-12 -5h-235
l-28 -145h51q48 0 91 -18.5t75 -50t50.5 -74.5t18.5 -91q0 -49 -18.5 -91.5t-50.5 -74.5t-75 -50.5t-91 -18.5q-54 0 -103 24t-82 66z" />
    <glyph glyph-name="F" unicode="F" 
d="M93 17q0 -7 -5 -12t-12 -5h-60q-7 0 -11.5 5t-4.5 12v667q0 16 16 16h316q16 0 16 -16v-61q0 -16 -16 -16h-239v-206h204q7 0 11.5 -5t4.5 -12v-61q0 -16 -16 -16h-204v-290v0z" />
    <glyph glyph-name="f" unicode="f" horiz-adv-x="248" 
d="M230 446q16 0 16 -16v-52q0 -16 -16 -16h-78v-346q0 -7 -5 -11.5t-12 -4.5h-61q-16 0 -16 16v346h-42q-16 0 -16 16v52q0 16 16 16h42q-1 24 0 46l2 37.5t4 29.5q10 36 29.5 55t36.5 27q32 14 63 13q12 0 23 -2.5t13 -3.5q1 -1 2 -1t3 -1q9 -4 10 -15q0 -3 -1 -5t-1 -4
l-15 -46q-1 -1 -1.5 -2.5t-1.5 -2.5q-5 -9 -14 -9q-2 0 -2.5 0.5t-2.5 0.5q-20 3 -34 -5q-4 -2 -10.5 -7.5t-8.5 -16.5q-2 -6 -2 -12.5v-11.5v-64h80v0z" />
    <glyph glyph-name="Z" unicode="Z" horiz-adv-x="390" 
d="M375 700q8 0 13 -7q5 -9 1 -16l-255 -583h229q7 0 11.5 -5t4.5 -12v-61q0 -16 -16 -16h-347q-9 0 -14 7q-4 7 -1 16l256 584h-235q-16 0 -16 16v61q0 16 16 16h353v0z" />
    <glyph glyph-name="z" unicode="z" horiz-adv-x="389" 
d="M371 446q14 0 16 -9.5t-2 -16.5q-1 -1 -11 -16l-26.5 -38l-37 -52.5l-41.5 -60.5l-112 -163h194q7 0 12 -4.5t5 -11.5v-57q0 -8 -5 -12.5t-12 -4.5h-334q-11 0 -15 9.5t1 16.5q1 1 11.5 16l26.5 38.5l36.5 53l41.5 60.5l112 162h-189q-7 0 -12 4.5t-5 12.5v57q0 6 4.5 11
t12.5 5h329v0z" />
    <glyph glyph-name="s" unicode="s" horiz-adv-x="332" 
d="M296 226q37 -35 37 -92q0 -38 -18.5 -67.5t-53.5 -49.5q-23 -13 -42 -17.5t-21 -4.5l-3 -1h-2h-18q-53 0 -86 13q-20 7 -32 15.5l-20 14.5q-1 2 -2 2.5t-2 1.5q-10 8 -17 17t-12 17q-2 2 -2 4q-2 4 -2 6q0 10 9 15l5 2l50 18q1 0 2 0.5t3 0.5q1 1 3 1q7 0 12 -5
q1 -1 5.5 -5t6.5 -6q5 -5 10 -8.5t13 -6.5q23 -9 67 -7l13.5 3.5t19.5 8.5q16 10 20 20t4 18q0 20 -8.5 27t-27.5 15q-3 2 -6.5 3t-6.5 3l-93 33l-2 1q-1 0 -3 1l-4 2q-11 4 -24.5 10.5t-26.5 19.5q-34 33 -34 85q0 71 65 108q21 11 38.5 15.5t19.5 4.5h3l2 1q34 1 57.5 -3
t40 -10.5t26.5 -13.5t16 -13q2 -1 4 -3q9 -7 15 -14.5t11 -14.5q2 -2 2 -4q1 -2 1 -7q0 -10 -9 -15q-1 0 -1.5 -0.5t-1.5 -0.5l-52 -19q-2 -1 -5 -1q-1 -1 -3 -1q-5 0 -9 3q-2 1 -5.5 4.5l-4.5 4.5l-8.5 7t-10.5 5q-10 4 -24.5 6t-31.5 0l-11.5 -3t-15.5 -7q-12 -8 -15 -15
t-3 -14q0 -8 5.5 -16.5t22.5 -15.5l6 -2t5 -2l93 -33l3 -2q1 0 3.5 -1t4.5 -2l26.5 -12.5t29.5 -21.5z" />
    <glyph glyph-name="U" unicode="U" horiz-adv-x="435" 
d="M218 -7q-45 0 -84.5 17t-69.5 47t-47 69.5t-17 84.5v474q0 16 16 16h61q7 0 12 -4.5t5 -11.5v-474q0 -26 9.5 -48.5t26.5 -39.5t39.5 -26.5t48.5 -9.5q25 0 47.5 9.5t39.5 26.5t26.5 39.5t9.5 48.5v474q0 7 5 11.5t12 4.5h61q16 0 16 -16v-474q0 -45 -17 -84.5
t-46.5 -69.5t-69 -47t-84.5 -17z" />
    <glyph glyph-name="u" unicode="u" horiz-adv-x="403" 
d="M403 15q0 -16 -16 -16h-59q-16 0 -16 16v18q-17 -20 -47 -31.5t-61 -11.5q-40 0 -76.5 11t-65 34.5t-45.5 59.5t-17 87v247q0 7 4.5 11.5t10.5 4.5h60q16 0 16 -16v-247q0 -27 10 -46.5t26 -31.5t36 -17.5t41 -5.5t40.5 6t34 19.5t23.5 33.5t9 49l1 57v183q0 16 16 16h59
q16 0 16 -16v-414z" />
    <glyph glyph-name="H" unicode="H" horiz-adv-x="468" 
d="M450 700q7 0 12 -4.5t5 -11.5v-668q0 -7 -5 -11.5t-12 -4.5h-61q-16 0 -16 16v291h-279v-291q0 -7 -5 -11.5t-12 -4.5h-60q-7 0 -12 4.5t-5 11.5v668q0 7 5 11.5t12 4.5h60q7 0 12 -4.5t5 -11.5v-284h279v284q0 16 16 16h61v0z" />
    <glyph glyph-name="h" unicode="h" horiz-adv-x="393" 
d="M393 20q0 -20 -16 -20h-61q-16 0 -16 16v246q0 56 -30.5 80t-73.5 24t-73 -26.5t-30 -85.5v-238q0 -16 -16 -16h-61q-16 0 -16 16v628q0 16 16 16h61q16 0 16 -16v-217q22 15 48 23.5t55 8.5q41 0 77 -12t62.5 -36t42 -61t15.5 -88v-242z" />
    <glyph glyph-name="d" unicode="d" horiz-adv-x="479" 
d="M478 16q0 -7 -5 -11.5t-11 -4.5h-61q-16 0 -16 16v27q-31 -26 -69 -40t-80 -14q-49 0 -92 18.5t-75 50.5t-50.5 75t-18.5 92t18.5 91.5t50.5 74.5t75 50.5t92 18.5q42 0 80 -14t69 -39v217q0 16 16 16h61q6 0 11 -4.5t5 -11.5v-608zM236 373q-31 0 -58 -11.5t-47.5 -31.5
t-32 -47t-11.5 -58t11.5 -58t32 -47.5t47.5 -32t58 -11.5t58.5 11t48.5 31t33.5 47t12.5 60t-12.5 60t-33.5 46.5t-48.5 30.5t-58.5 11z" />
    <glyph glyph-name="six" unicode="6" horiz-adv-x="415" 
d="M207 406q39 0 73.5 -13.5t62 -37.5t46 -57t23.5 -71q5 -42 -5 -81t-36 -72q-25 -33 -60 -53.5t-77 -26.5q-7 -1 -13.5 -1.5t-14.5 -0.5q-39 0 -73.5 13.5t-62 37.5t-45.5 57t-23 71q-1 3 -1 7v1q-4 34 4 66.5t25 61.5l239 386q5 7 14 7h69q10 0 15 -8q4 -9 -1 -17
l-167 -269h8zM296 131q27 36 21 83q-2 20 -12 38t-25 31q-31 28 -74 28q-4 0 -7.5 -0.5t-6.5 -0.5q-23 -3 -41.5 -14.5t-32.5 -28.5q-28 -37 -22 -83q6 -43 37 -69q33 -28 73 -28q4 0 7.5 0.5t8.5 0.5q22 3 41 14.5t33 28.5z" />
    <glyph glyph-name="Q" unicode="Q" horiz-adv-x="714" 
d="M356 706q73 0 138 -28t113.5 -76.5t76.5 -113.5t28 -138q0 -65 -23 -126q-21 -55 -57 -98l42 -42q4 -4 4 -11q0 -8 -4 -12l-44 -43q-5 -5 -11.5 -5t-11.5 5l-43 44q-42 -31 -92 -48q-57 -20 -116 -20q-74 0 -139 28t-113 76.5t-76 113t-28 138.5q0 73 28 138t76 113.5
t113 76.5t139 28zM400 227q-5 5 -5 11q0 7 5 12l43 43q5 5 11.5 5t11.5 -5l100 -101q22 31 36 66q17 46 17 92q0 54 -20.5 102t-56.5 84t-84 56.5t-102 20.5t-102 -20.5t-84 -56.5t-56.5 -84t-20.5 -102t20.5 -102t56.5 -84t84 -56.5t102 -20.5q76 0 141 42z" />
    <glyph glyph-name="q" unicode="q" horiz-adv-x="477" 
d="M478 -178q0 -7 -5 -11.5t-11 -4.5h-61q-16 0 -16 16v217q-31 -25 -69 -39t-80 -14q-49 0 -92 18.5t-75 50.5t-50.5 74.5t-18.5 91.5t18.5 92t50.5 75t75 50.5t92 18.5q42 0 80 -14t69 -40v27q0 16 16 16h61q6 0 11 -4.5t5 -11.5v-608zM236 73q31 0 58.5 11t48.5 30.5
t33.5 46.5t12.5 60t-12.5 60t-33.5 47t-48.5 31t-58.5 11t-58 -12t-47.5 -32t-32 -47t-11.5 -58t11.5 -58t32 -47t47.5 -31.5t58 -11.5z" />
    <glyph glyph-name="J" unicode="J" horiz-adv-x="350" 
d="M348 162q0 -30 -9.5 -57t-26.5 -48.5t-39.5 -37.5t-49.5 -23q-11 -4 -24 -5.5t-24 -1.5q-35 0 -66 13t-54.5 35.5t-38 52.5t-16.5 64v20q0 10 2 12q5 5 13 5h60q5 0 9 -4.5t4 -10.5l3 -17q1 -17 8 -31.5t18.5 -25t26.5 -16.5t31 -6t31 6t26.5 17t18.5 26t7 33v522
q0 5 4 10t12 5h61q5 0 9 -5t4 -10v-522z" />
    <glyph glyph-name="j" unicode="j" horiz-adv-x="94" 
d="M47 498q-26 0 -44.5 18.5t-18.5 44.5t18.5 44t44.5 18t44.5 -18t18.5 -44t-18.5 -44.5t-44.5 -18.5zM80 445q14 -2 14 -16v-429q0 -93 -51 -178l-10 -17q-5 -9 -14 -9q-5 0 -8 3l-54 30q-4 2 -8 10q-2 6 2 13l11 18q18 31 28 64.5t10 65.5v429v2q2 12 13 14h3h62h2z" />
    <glyph glyph-name="O" unicode="O" horiz-adv-x="712" 
d="M356 -5q-74 0 -139 28t-113 76.5t-76 113t-28 138.5q0 73 28 138t76 113.5t113 76.5t139 28q73 0 138 -28t113.5 -76.5t76.5 -113.5t28 -138q0 -74 -28 -138.5t-76.5 -113t-113.5 -76.5t-138 -28zM93 351q0 -54 20.5 -102t56.5 -84t84 -56.5t102 -20.5t102 20.5
t83.5 56.5t56 84t20.5 102t-20.5 102t-56 84t-83.5 56.5t-102 20.5t-102 -20.5t-84 -56.5t-56.5 -84t-20.5 -102z" />
    <glyph glyph-name="o" unicode="o" horiz-adv-x="471" 
d="M236 458q49 0 91.5 -18.5t74.5 -50.5t50.5 -74.5t18.5 -91.5t-18.5 -91.5t-50.5 -74.5t-74.5 -50.5t-91.5 -18.5t-92 18.5t-75 50.5t-50.5 74.5t-18.5 91.5t18.5 91.5t50.5 74.5t75 50.5t92 18.5zM236 74q31 0 58 11.5t47 32t31.5 47.5t11.5 58t-11.5 58t-31.5 47
t-47 31.5t-58 11.5t-58 -11.5t-47.5 -31.5t-32 -47t-11.5 -58t11.5 -58t32 -47.5t47.5 -32t58 -11.5z" />
    <glyph glyph-name="V" unicode="V" horiz-adv-x="576" 
d="M560 700q10 0 14 -7q5 -7 2 -15l-273 -675q-5 -11 -15 -11q-11 0 -16 11l-272 675q-4 9 1 15q4 7 14 7h65q11 0 16 -10l192 -475l192 475q3 10 15 10h65v0z" />
    <glyph glyph-name="N" unicode="N" horiz-adv-x="635" 
d="M618 699q16 0 16 -16v-675q0 -12 -10 -15q-4 -2 -6 -2q-8 0 -12 6l-453 508v-489q0 -7 -5 -11.5t-12 -4.5h-61q-16 0 -16 16v593l-56 63q-8 8 -3 18q4 9 15 9h82q8 0 12 -5l432 -484v473q0 8 4 12t12 4h61v0z" />
    <glyph glyph-name="n" unicode="n" horiz-adv-x="401" 
d="M345 414q26 -23 41 -59t15 -90v-249q0 -16 -16 -16h-59q-16 0 -16 16v249q0 52 -26 75.5t-62 25.5q-6 1 -12 0.5t-12 -1.5q-21 -2 -40 -10t-34 -23.5t-24 -39.5t-9 -58v-218q0 -16 -16 -16h-60q-6 0 -10.5 4.5t-4.5 11.5v413q0 6 4.5 11t10.5 5h60q7 0 11.5 -5t4.5 -11
v-26q15 17 34.5 29t39.5 18q11 3 24 5t30 2h22q23 -2 41.5 -8.5t32.5 -14.5q16 -9 30 -20z" />
    <glyph glyph-name="exclam" unicode="!" horiz-adv-x="94" 
d="M17 154q-7 0 -12 4.5t-5 11.5v515q0 7 5 11.5t12 4.5h61q16 0 16 -16v-515q0 -16 -16 -16h-61zM47 -7q-24 0 -41.5 17t-17.5 42t17.5 42t41.5 17q25 0 42.5 -17t17.5 -42t-17.5 -42t-42.5 -17z" />
    <glyph glyph-name="T" unicode="T" horiz-adv-x="406" 
d="M16 607q-16 0 -16 16v61q0 16 16 16h371q16 0 16 -16v-61q0 -16 -16 -16h-139v-590q0 -7 -4.5 -12t-11.5 -5h-61q-7 0 -11.5 5t-4.5 12v590h-139v0z" />
    <glyph glyph-name="t" unicode="t" horiz-adv-x="246" 
d="M246 378q0 -16 -16 -16h-79v-180q-1 -16 0 -29q0 -11 1 -23t3 -17q3 -11 7 -15.5t8 -6.5q11 -8 36 -6q1 0 1.5 0.5t1.5 0.5h1q12 0 15 -10q1 -1 1 -2t1 -2l14 -46q3 -9 -0.5 -14.5t-8.5 -7.5q-2 -2 -12.5 -5.5t-26.5 -4.5q-17 -2 -32.5 2t-30.5 11q-17 8 -36.5 27
t-29.5 55q-3 10 -4 25.5t-1.5 30t-0.5 25v12.5v180h-42q-16 0 -16 16v52q0 16 16 16h42v108q0 16 16 16h61q16 0 16 -16v-108h79q16 0 16 -16v-52v0z" />
    <glyph glyph-name="G" unicode="G" horiz-adv-x="713" 
d="M709 313q-7 -68 -37 -126.5t-77.5 -101.5t-109 -67.5t-130.5 -24.5q-74 0 -138.5 28t-113 76.5t-76.5 113t-28 138.5q0 73 28 138t76.5 113.5t113 76.5t138.5 28q89 0 167 -41.5t128 -115.5l11 -17q4 -5 3 -12q-2 -7 -7 -10l-50 -34q-6 -4 -12.5 -2.5t-10.5 6.5l-11 17
q-38 55 -95 85.5t-123 30.5q-54 0 -102 -20.5t-84 -56.5t-56.5 -84t-20.5 -102t20.5 -102t56.5 -84t84 -56.5t102 -20.5q90 0 160 55q17 13 31.5 28.5t26.5 32.5q18 27 29 58h-221q-7 0 -11.5 5t-4.5 12v61q0 16 16 16h314q7 0 12 -6q6 -6 4 -12l-2 -23v0z" />
    <glyph glyph-name="g" unicode="g" horiz-adv-x="474" 
d="M458 445q6 0 10.5 -4t4.5 -10v-434q0 -2 -0.5 -4t-0.5 -4q-6 -101 -69 -162q-32 -32 -75 -48.5t-93 -16.5q-51 0 -95 15.5t-76 44.5q-11 9 -3 20l10 16l20 30q5 7 14 7q3 0 8 -3q45 -27 74.5 -33.5t47.5 -6.5q63 0 104 39q41 40 43 108v39l-2 -2q-32 -24 -68.5 -37
t-77.5 -13q-48 0 -91 18.5t-75 50.5t-50.5 75t-18.5 91q0 49 18.5 92t50.5 75t75 50.5t91 18.5q81 0 146 -51l2 -2v27q0 6 4.5 10t10.5 4h61zM380 235q-2 28 -13.5 52.5t-31.5 43.5q-44 39 -101 39q-30 0 -57 -12t-47.5 -32t-32 -47t-11.5 -58q0 -30 11.5 -57t32 -47.5
t47.5 -32t57 -11.5q57 0 101 39q20 19 31.5 43.5t13.5 51.5v28z" />
    <glyph glyph-name="K" unicode="K" horiz-adv-x="466" 
d="M459 21q2 -3 4 -7t1 -7q-2 -8 -10 -8h-71q-7 0 -12.5 1t-10.5 8l-193 316l-77 -92v-217q0 -7 -4.5 -11.5t-10.5 -4.5h-60q-16 0 -16 16v667q0 16 16 16h60q6 0 10.5 -4.5t4.5 -11.5v-307l255 311q5 5 12 10t17 3l89 -1q10 -12 -1 -23l-232 -277z" />
    <glyph glyph-name="k" unicode="k" horiz-adv-x="390" 
d="M297 150l31.5 -43.5l28.5 -38.5t21 -28.5t9 -12.5q5 -7 2.5 -17t-15.5 -10h-73q-6 0 -10 4q-2 2 -3 4l-143 194l-52 -53v-133q0 -16 -16 -16h-61q-16 0 -16 15v624q0 7 4 12t11 5h61q16 0 16 -16v-361l142 142q1 1 3 2q4 2 9 2h82q14 0 16.5 -10.5t-4.5 -17.5l-129 -129z
" />
    <glyph glyph-name="C" unicode="C" horiz-adv-x="614" 
d="M356 -6q-74 0 -139 28t-113 76.5t-76 113t-28 138.5q0 73 28 138t76 113.5t113 76.5t139 28q66 0 126.5 -23t109.5 -67l17 -15q5 -5 5 -11q0 -8 -5 -12l-43 -43q-11 -12 -22 -1l-15 13q-36 32 -80.5 49t-92.5 17q-54 0 -102 -20.5t-84 -56.5t-56.5 -84t-20.5 -102
t20.5 -102t56.5 -84t84 -56.5t102 -20.5q48 0 92.5 17t80.5 49l15 13q11 11 22 -1l43 -43q5 -4 5 -12q0 -6 -5 -11l-17 -15q-49 -44 -109.5 -67t-126.5 -23z" />
    <glyph glyph-name="c" unicode="c" horiz-adv-x="412" 
d="M406 82q4 -4 4 -12q0 -6 -4 -10q0 -1 -0.5 -1t-0.5 -1q-32 -34 -74.5 -53.5t-93.5 -19.5q-49 0 -92 18.5t-75.5 51t-51 75.5t-18.5 92t18.5 92t51 75.5t75.5 51t92 18.5q51 0 94.5 -20t75.5 -55q2 -2 2 -3q4 -4 4 -10t-5 -11l-3 -3l-37 -31q-1 0 -3 -2q-3 -3 -9 -3
q-5 0 -11 4q-2 2 -2 3q-20 20 -47.5 32t-58.5 12t-58 -12t-47.5 -32t-32 -47.5t-11.5 -58.5t11.5 -58t32 -47.5t47.5 -32t58 -11.5t57.5 11t46.5 31l2 2q4 4 11 4q6 0 9 -3q1 -1 1.5 -1t1.5 -1l37 -31z" />
    <glyph glyph-name="backslash" unicode="\" horiz-adv-x="790" 
d="M103 693q4 9 14 9h53q7 0 12 -6l505 -672q5 -9 1 -16q-5 -8 -13 -8h-52q-8 0 -12 6l-506 672q-6 7 -2 15z" />
    <glyph glyph-name="braceleft" unicode="{" horiz-adv-x="198" 
d="M106 12q-20 27 -39 65.5t-34 84t-24 95.5t-9 99v2v1v6q2 46 12.5 94.5t28.5 97.5q17 45 37.5 82.5t43.5 64.5l12 16q5 5 11.5 6t11.5 -4l34 -27q5 -4 6 -10.5t-2 -11.5l-11 -15q-37 -56 -60 -130q-28 -91 -31 -169q-1 -39 5 -81t18 -90q10 -37 23.5 -70t31.5 -62l10 -16
q7 -14 -5 -22l-35 -26q-5 -3 -10 -3q-8 0 -13 7l-12 16v0z" />
    <glyph glyph-name="bracketleft" unicode="[" 
d="M180 12q-20 27 -39 65.5t-34 84t-24 95.5t-9 99v2v1v6q2 46 12.5 94.5t28.5 97.5q17 45 37.5 82.5t43.5 64.5l12 16q5 5 11.5 6t11.5 -4l34 -27q5 -4 6 -10.5t-2 -11.5l-11 -15q-37 -56 -60 -130q-28 -91 -31 -169q-1 -39 5 -81t18 -90q10 -37 23.5 -70t31.5 -62l10 -16
q7 -14 -5 -22l-35 -26q-5 -3 -10 -3q-8 0 -13 7l-12 16v0z" />
    <glyph glyph-name="bracketright" unicode="]" 
d="M82 12q-11 9 -3 22l10 15q38 58 59 131q14 47 21 89t8 82q0 78 -25 169q-20 75 -56 132l-10 16q-7 12 4 21l36 26q5 5 11.5 3.5t10.5 -6.5l12 -16q21 -27 40.5 -65.5t35 -83.5t25.5 -95t10 -99v-2v-1v-6q-3 -93 -40 -193q-16 -45 -36.5 -82.5t-42.5 -65.5l-12 -15
q-6 -6 -13 -6q-6 0 -10 3l-35 27v0z" />
    <glyph glyph-name="braceright" unicode="}" horiz-adv-x="191" 
d="M4 12q-11 9 -3 22l10 15q38 58 59 131q14 47 21 89t8 82q0 78 -25 169q-20 75 -56 132l-10 16q-7 12 4 21l36 26q5 5 11.5 3.5t10.5 -6.5l12 -16q21 -27 40.5 -65.5t35 -83.5t25.5 -95t10 -99v-2v-1v-6q-3 -93 -40 -193q-16 -45 -36.5 -82.5t-42.5 -65.5l-12 -15
q-6 -6 -13 -6q-6 0 -10 3l-35 27v0z" />
    <glyph glyph-name="L" unicode="L" horiz-adv-x="350" 
d="M349 16q0 -16 -16 -16h-316q-7 0 -12 4.5t-5 11.5v668q0 7 5 11.5t12 4.5h60q16 0 16 -16v-591h240q16 0 16 -16v-61v0z" />
    <glyph glyph-name="E" unicode="E" 
d="M333 94q16 0 16 -16v-61q0 -7 -5 -12t-11 -5l-317 1q-16 0 -16 16v667q0 16 16 16h316q7 0 12 -4.5t5 -11.5v-61q0 -7 -5 -11.5t-12 -4.5h-239v-206h204q7 0 12 -5t5 -12v-61q0 -7 -5 -11.5t-12 -4.5h-204v-213h240v0z" />
    <glyph glyph-name="e" unicode="e" horiz-adv-x="468" 
d="M467 223v-3q-2 -12 -14 -14h-3h-2h-360q3 -28 15.5 -52t32.5 -42t45 -28t54 -10q45 0 78.5 14.5t53.5 36.5l3 3q5 5 11 5q5 0 7 -1q4 -2 5 -3l29 -30l4 -4q6 -6 6 -12q0 -5 -3 -9q0 -1 -2 -3q-40 -42 -84.5 -62.5t-107.5 -20.5q-49 0 -91.5 18.5t-74.5 50.5t-50.5 74.5
t-18.5 91.5t18.5 91.5t50.5 74.5t74.5 50.5t91.5 18.5q48 0 90 -18.5t73.5 -50t49.5 -73.5t19 -90v-3zM368 289q-18 37 -53.5 59.5t-79.5 22.5t-79.5 -22.5t-53.5 -59.5h266z" />
    <glyph glyph-name="l" unicode="l" horiz-adv-x="93" 
d="M93 16q0 -16 -16 -16h-61q-16 0 -16 16v592q0 16 16 16h61q16 0 16 -16v-592z" />
    <glyph glyph-name="I" unicode="I" horiz-adv-x="94" 
d="M16 0q-6 0 -11 4.5t-5 11.5v668q0 7 5 11.5t11 4.5h61q7 0 12 -4.5t5 -11.5v-668q0 -7 -5 -11.5t-12 -4.5h-61v0z" />
    <glyph glyph-name="i" unicode="i" horiz-adv-x="94" 
d="M47 498q-26 0 -44.5 18.5t-18.5 44.5t18.5 44t44.5 18t44 -18t18 -44t-18 -44.5t-44 -18.5zM77 445q7 0 12 -4.5t5 -11.5v-413q0 -7 -5 -11.5t-12 -4.5h-61q-16 0 -16 16v413q0 16 16 16h61z" />
    <glyph glyph-name="comma" unicode="," horiz-adv-x="190" 
d="M77 -95q-5 0 -6 3q-2 2 -2 6l36 147q1 6 7 6h70q4 0 7 -3q1 -2 1 -8l-60 -146q-2 -5 -7 -5h-46v0z" />
    <glyph glyph-name="period" unicode="." horiz-adv-x="187" 
d="M188 46q0 -22 -15.5 -37.5t-37.5 -15.5q-23 0 -38.5 15.5t-15.5 37.5q0 23 15.5 38.5t38.5 15.5q22 0 37.5 -15.5t15.5 -38.5z" />
    <glyph glyph-name="semicolon" unicode=";" horiz-adv-x="108" 
d="M108 251q0 -22 -15.5 -37.5t-38.5 -15.5q-22 0 -37.5 15.5t-15.5 37.5q0 23 15.5 38.5t37.5 15.5q23 0 38.5 -15.5t15.5 -38.5zM-6 -79q-5 0 -6 3q-2 2 -2 6l36 147q1 6 7 6h70q4 0 7 -3q1 -2 1 -8l-60 -146q-2 -5 -7 -5h-46z" />
    <glyph glyph-name="colon" unicode=":" horiz-adv-x="172" 
d="M174 47q0 -23 -15.5 -38.5t-38.5 -15.5q-22 0 -37.5 15.5t-15.5 38.5q0 22 15.5 37.5t37.5 15.5q23 0 38.5 -15.5t15.5 -37.5zM174 250q0 -22 -15.5 -37.5t-38.5 -15.5q-22 0 -37.5 15.5t-15.5 37.5q0 23 15.5 38.5t37.5 15.5q23 0 38.5 -15.5t15.5 -38.5z" />
    <glyph glyph-name="quotedblbase" unicode="&#x201e;" horiz-adv-x="239" 
d="M7 -62q-3 0 -6 3q-2 2 -2 7l36 147q2 6 8 6h70q4 0 6 -4q3 -3 0 -7l-58 -147q-2 -5 -8 -5h-46zM230 101q4 0 6 -4q3 -1 1 -7l-60 -147q-2 -5 -6 -5h-47q-5 0 -5 3q-3 3 -2 7l35 147q2 6 8 6h70z" />
    <glyph glyph-name="quotedblleft" unicode="&#x201c;" horiz-adv-x="241" 
d="M231 788q3 0 6 -3q2 -2 2 -7l-36 -147q-2 -6 -8 -6h-70q-4 0 -6 4q-3 3 0 7l58 147q2 5 8 5h46zM8 625q-4 0 -6 4q-3 1 -1 7l60 147q2 5 6 5h47q5 0 5 -3q3 -3 2 -7l-35 -147q-2 -6 -8 -6h-70z" />
    <glyph glyph-name="quotedblright" unicode="&#x201d;" horiz-adv-x="241" 
d="M54 788q6 0 8 -5l58 -147q3 -4 0 -7q-2 -4 -6 -4h-70q-6 0 -8 6l-36 147q0 5 2 7q3 3 6 3h46zM161 625q-6 0 -8 6l-35 147q-1 4 2 7q0 3 5 3h47q4 0 6 -5l60 -147q2 -6 -1 -7q-2 -4 -6 -4h-70z" />
    <glyph glyph-name="quotedbl" unicode="&#x22;" horiz-adv-x="241" 
d="M231 788q3 0 6 -3q2 -2 2 -7l-36 -147q-2 -6 -8 -6h-70q-4 0 -6 4q-3 3 0 7l58 147q2 5 8 5h46zM8 625q-4 0 -6 4q-3 1 -1 7l60 147q2 5 6 5h47q5 0 5 -3q3 -3 2 -7l-35 -147q-2 -6 -8 -6h-70z" />
    <glyph glyph-name="A" unicode="A" horiz-adv-x="591" 
d="M591 23q3 -8 -1 -15q-5 -7 -14 -7h-65q-12 0 -15 10l-102 252l-196 -1l-102 -251q-3 -10 -15 -10h-66q-8 0 -13 7q-5 8 -2 15l245 607l-19 49q-3 8 1 15q5 7 14 7h65q11 0 16 -10zM296 506l-60 -150h120z" />
    <glyph glyph-name="ampersand" unicode="&#x26;" horiz-adv-x="571" 
d="M206 -6q-43 0 -80.5 16.5t-65.5 44.5t-44 65.5t-16 79.5q0 55 28 105q28 47 74 73l1 1l56 35l-34 44v1q-29 41 -29 90q0 33 12.5 61.5t33.5 49.5t49.5 33.5t61.5 12.5q32 0 60.5 -12.5t49.5 -33.5t33.5 -49.5t12.5 -61.5q0 -38 -18 -72.5t-50 -56.5l-1 -1l-48 -29
l139 -184l53 33q5 4 11.5 2.5t10.5 -7.5l32 -50q3 -7 2 -12q-1 -6 -8 -11l-45 -28l81 -107q7 -9 2 -17q-5 -9 -15 -9h-74q-9 0 -13 6l-59 78l-95 -60q-50 -30 -108 -30zM290 496q13 9 20.5 23t7.5 30q0 27 -19 46t-46 19t-46 -19t-19 -46q0 -20 11 -36l38 -50zM148 299
q-26 -15 -41 -41t-15 -58q0 -24 9 -44.5t24.5 -36t36 -24.5t44.5 -9q34 0 60 16l88 55l-139 184l-65 -41z" />
    <glyph glyph-name="space" unicode=" " horiz-adv-x="400" 
 />
    <glyph glyph-name="parenleft" unicode="(" 
d="M180 12q-20 27 -39 65.5t-34 84t-24 95.5t-9 99v2v1v6q2 46 12.5 94.5t28.5 97.5q17 45 37.5 82.5t43.5 64.5l12 16q5 5 11.5 6t11.5 -4l34 -27q5 -4 6 -10.5t-2 -11.5l-11 -15q-37 -56 -60 -130q-28 -91 -31 -169q-1 -39 5 -81t18 -90q10 -37 23.5 -70t31.5 -62l10 -16
q7 -14 -5 -22l-35 -26q-5 -3 -10 -3q-8 0 -13 7l-12 16v0z" />
    <glyph glyph-name="Odieresis" unicode="&#xd6;" horiz-adv-x="712" 
d="M356 -6q-74 0 -138.5 28t-113 76.5t-76.5 113t-28 138.5q0 73 28 138t76.5 113.5t113 76.5t138.5 28q73 0 138 -28t113.5 -76.5t76.5 -113.5t28 -138q0 -74 -28 -138.5t-76.5 -113t-113.5 -76.5t-138 -28zM93 351q0 -54 20.5 -102t56.5 -84t84 -56.5t102 -20.5t102 20.5
t83.5 56.5t56 84t20.5 102t-20.5 102t-56 84t-83.5 56.5t-102 20.5t-102 -20.5t-84 -56.5t-56.5 -84t-20.5 -102zM260 781q0 -22 -15.5 -37.5t-37.5 -15.5q-23 0 -38.5 15.5t-15.5 37.5q0 23 15.5 38.5t38.5 15.5q22 0 37.5 -15.5t15.5 -38.5zM567 781q0 -22 -15.5 -37.5
t-37.5 -15.5q-23 0 -38.5 15.5t-15.5 37.5q0 23 15.5 38.5t38.5 15.5q22 0 37.5 -15.5t15.5 -38.5z" />
    <glyph glyph-name="odieresis" unicode="&#xf6;" horiz-adv-x="469" 
d="M204 551q0 -22 -15.5 -37.5t-37.5 -15.5q-23 0 -38.5 15.5t-15.5 37.5q0 23 15.5 38.5t38.5 15.5q22 0 37.5 -15.5t15.5 -38.5zM372 551q0 -22 -15.5 -37.5t-37.5 -15.5q-23 0 -38.5 15.5t-15.5 37.5q0 23 15.5 38.5t38.5 15.5q22 0 37.5 -15.5t15.5 -38.5zM235 463
q49 0 91.5 -18.5t74.5 -50.5t50.5 -74.5t18.5 -91.5t-18.5 -91.5t-50.5 -74.5t-74.5 -50.5t-91.5 -18.5t-91.5 18.5t-74.5 50.5t-50.5 74.5t-18.5 91.5t18.5 91.5t50.5 74.5t74.5 50.5t91.5 18.5zM235 79q31 0 58 11.5t47 32t31.5 47.5t11.5 58t-11.5 58t-31.5 47t-47 31.5
t-58 11.5t-58 -11.5t-47 -31.5t-31.5 -47t-11.5 -58t11.5 -58t31.5 -47.5t47 -32t58 -11.5z" />
    <glyph glyph-name="adieresis" unicode="&#xe4;" horiz-adv-x="481" 
d="M214 551q0 -22 -15.5 -37.5t-37.5 -15.5q-23 0 -38.5 15.5t-15.5 37.5q0 23 15.5 38.5t38.5 15.5q22 0 37.5 -15.5t15.5 -38.5zM382 551q0 -22 -15.5 -37.5t-37.5 -15.5q-23 0 -38.5 15.5t-15.5 37.5q0 23 15.5 38.5t38.5 15.5q22 0 37.5 -15.5t15.5 -38.5zM481 16
q0 -16 -16 -16h-61q-7 0 -12 4.5t-5 11.5v23q-30 -25 -68.5 -39.5t-81.5 -14.5q-49 0 -92 18.5t-75 51t-50.5 75.5t-18.5 92t18.5 92t50.5 75.5t75 51t92 18.5q43 0 81.5 -14t68.5 -40v26q0 7 5 11.5t12 4.5h61q16 0 16 -16v-415zM237 73q31 0 59 11t49.5 31t34 47t12.5 60
t-12.5 60.5t-34 47.5t-49.5 31t-59 11t-58 -12t-47.5 -32t-32 -47.5t-11.5 -58.5t11.5 -58t32 -47.5t47.5 -32t58 -11.5z" />
    <glyph glyph-name="Adieresis" unicode="&#xc4;" horiz-adv-x="828" 
d="M730 0q-7 0 -12 5l-232 261h-186v-250q0 -16 -16 -16h-61q-16 0 -16 16v562l-85 95q-7 8 -3 17q5 10 15 10h82q7 0 12 -5l596 -668q7 -8 3 -17q-5 -10 -15 -10h-82zM300 474v-115h102zM105 781q0 -22 -15.5 -37.5t-37.5 -15.5q-23 0 -38.5 15.5t-15.5 37.5
q0 23 15.5 38.5t38.5 15.5q22 0 37.5 -15.5t15.5 -38.5zM343 781q0 -22 -15.5 -37.5t-37.5 -15.5q-23 0 -38.5 15.5t-15.5 37.5q0 23 15.5 38.5t38.5 15.5q22 0 37.5 -15.5t15.5 -38.5z" />
    <glyph glyph-name="udieresis" unicode="&#xfc;" horiz-adv-x="402" 
d="M190 551q0 -22 -15.5 -37.5t-37.5 -15.5q-23 0 -38.5 15.5t-15.5 37.5q0 23 15.5 38.5t38.5 15.5q22 0 37.5 -15.5t15.5 -38.5zM358 551q0 -22 -15.5 -37.5t-37.5 -15.5q-23 0 -38.5 15.5t-15.5 37.5q0 23 15.5 38.5t38.5 15.5q22 0 37.5 -15.5t15.5 -38.5zM403 15
q0 -16 -16 -16h-59q-16 0 -16 16v18q-17 -20 -47 -31.5t-61 -11.5q-40 0 -76.5 11t-65 34.5t-45.5 59.5t-17 87v247q0 7 4.5 11.5t10.5 4.5h60q16 0 16 -16v-247q0 -27 10 -46.5t26 -31.5t36 -17.5t41 -5.5t40.5 6t34 19.5t23.5 33.5t9 49l1 57v183q0 16 16 16h59
q16 0 16 -16v-414z" />
    <glyph glyph-name="Udieresis" unicode="&#xdc;" horiz-adv-x="435" 
d="M218 -7q-45 0 -84.5 17t-69.5 47t-47 69.5t-17 84.5v474q0 16 16 16h61q7 0 12 -4.5t5 -11.5v-474q0 -26 9.5 -48.5t26.5 -39.5t39.5 -26.5t48.5 -9.5q25 0 47.5 9.5t39.5 26.5t26.5 39.5t9.5 48.5v474q0 7 5 11.5t12 4.5h61q16 0 16 -16v-474q0 -45 -17 -84.5
t-46.5 -69.5t-69 -47t-84.5 -17zM190 781q0 -22 -15.5 -37.5t-37.5 -15.5q-23 0 -38.5 15.5t-15.5 37.5q0 23 15.5 38.5t38.5 15.5q22 0 37.5 -15.5t15.5 -38.5zM358 781q0 -22 -15.5 -37.5t-37.5 -15.5q-23 0 -38.5 15.5t-15.5 37.5q0 23 15.5 38.5t38.5 15.5
q22 0 37.5 -15.5t15.5 -38.5z" />
    <glyph glyph-name="emdash" unicode="&#x2014;" horiz-adv-x="309" 
d="M8 315q-8 0 -8 8v57q0 8 8 8h292q8 0 8 -8v-57q0 -8 -8 -8h-292v0z" />
    <glyph glyph-name="endash" unicode="&#x2013;" horiz-adv-x="309" 
d="M8 315q-8 0 -8 8v57q0 8 8 8h292q8 0 8 -8v-57q0 -8 -8 -8h-292v0z" />
    <glyph glyph-name="germandbls" unicode="&#xdf;" horiz-adv-x="399" 
d="M297 386q48 -30 75 -78.5t27 -103.5q0 -44 -17 -83t-47 -68.5t-70 -47.5t-86 -19q-10 -1 -13.5 5.5t-3.5 10.5v59q0 11 6.5 14t9.5 3q27 1 50 11.5t40.5 27.5t27.5 39.5t10 47.5t-10 48t-27.5 40.5t-40.5 27.5t-50 10q-6 0 -11 4.5t-5 11.5v60q0 11 6.5 14t8.5 3
q30 2 51 24.5t21 53.5q0 32 -23 55t-55 23t-55 -23t-23 -55v-9v-477q0 -7 -5 -11.5t-12 -4.5h-60q-16 0 -16 16v482v4q0 35 13.5 66t36.5 54.5t54.5 37t66.5 13.5t66 -13.5t54 -37t36.5 -54.5t13.5 -66q0 -66 -44 -115z" />
    <glyph glyph-name="hungarumlaut" unicode="&#x2dd;" horiz-adv-x="241" 
d="M231 788q3 0 6 -3q2 -2 2 -7l-36 -147q-2 -6 -8 -6h-70q-4 0 -6 4q-3 3 0 7l58 147q2 5 8 5h46zM8 625q-4 0 -6 4q-3 1 -1 7l60 147q2 5 6 5h47q5 0 5 -3q3 -3 2 -7l-35 -147q-2 -6 -8 -6h-70z" />
    <glyph glyph-name="guillemotright" unicode="&#xbb;" horiz-adv-x="239" 
d="M7 -62q-3 0 -6 3q-2 2 -2 7l36 147q2 6 8 6h70q4 0 6 -4q3 -3 0 -7l-58 -147q-2 -5 -8 -5h-46zM230 101q4 0 6 -4q3 -1 1 -7l-60 -147q-2 -5 -6 -5h-47q-5 0 -5 3q-3 3 -2 7l35 147q2 6 8 6h70z" />
    <glyph glyph-name="guillemotleft" unicode="&#xab;" horiz-adv-x="241" 
d="M231 788q3 0 6 -3q2 -2 2 -7l-36 -147q-2 -6 -8 -6h-70q-4 0 -6 4q-3 3 0 7l58 147q2 5 8 5h46zM8 625q-4 0 -6 4q-3 1 -1 7l60 147q2 5 6 5h47q5 0 5 -3q3 -3 2 -7l-35 -147q-2 -6 -8 -6h-70z" />
    <glyph glyph-name="quotesingle" unicode="'" horiz-adv-x="251" 
d="M166 771q3 -3 2 -6l-15 -147q0 -7 -8 -7h-41q-8 0 -8 7l-13 147q0 2 2 6q4 2 6 2h70q3 0 5 -2z" />
    <glyph glyph-name="equal" unicode="=" horiz-adv-x="309" 
d="M308 251q0 -8 -9 -8h-291q-8 0 -8 8v57q0 8 8 8h291q9 0 9 -8v-57zM8 384q-8 0 -8 8v56q0 8 8 8h291q9 0 9 -8v-56q0 -8 -9 -8h-291z" />
    <glyph glyph-name="nine" unicode="9" horiz-adv-x="413" 
d="M412 521q8 -69 -29 -128l-239 -385q-5 -8 -13 -8h-70q-11 0 -14 8q-5 8 0 17l167 269h-8q-38 0 -73 13.5t-62 37.5t-45.5 57t-23.5 71q-6 42 4.5 81t35.5 72t60 54t77 26q7 1 13.5 1.5t14.5 0.5q39 0 73.5 -13.5t62 -37.5t45.5 -57t23 -71q1 -3 1 -7v-1zM295 433
q14 18 19.5 39.5t2.5 43.5q-2 20 -12 38t-25 31q-33 28 -73 28q-4 0 -7.5 -0.5t-7.5 -0.5q-23 -3 -41.5 -14.5t-32.5 -28.5q-28 -37 -22 -83q6 -43 37 -69q33 -28 74 -28q4 0 7.5 0.5t7.5 0.5q22 3 40.5 14.5t32.5 28.5z" />
    <glyph glyph-name="D" unicode="D" horiz-adv-x="490" 
d="M140 700q72 0 136 -27.5t111.5 -75t75 -111.5t27.5 -136t-27.5 -136t-75 -111.5t-111.5 -75t-136 -27.5h-124q-16 0 -16 16v668q0 6 5 11t11 5h124zM93 93h47q53 0 99.5 20.5t81.5 55.5t55.5 81.5t20.5 99.5t-20.5 99.5t-55.5 81.5t-81.5 55t-99.5 20h-47v-513z" />
    <glyph glyph-name="uni00A0" unicode="&#xa0;" horiz-adv-x="319" 
 />
    </font>
</defs>
</svg>
