<svg xmlns="http://www.w3.org/2000/svg" xmlns:xlink="http://www.w3.org/1999/xlink" xmlns:fi="http://pattern.flaticon.com/" x="0" y="0" width="3000" height="3000" viewBox="0 0 3000 3000"><rect x="0px" y="0px" width="100%" height="100%" opacity="1" fill="#161616"/><defs><path d="M0,1.5v63C0,65.328,0.672,66,1.5,66h63c0.828,0,1.5-0.672,1.5-1.5v-63C66,0.672,65.328,0,64.5,0h-63    C0.672,0,0,0.672,0,1.5z M17.916,33h3.75V3h5.333v30h3.75v29.875c0,0.043,0.009,0.083,0.013,0.125H17.904    c0.004-0.042,0.013-0.082,0.013-0.125L17.916,33L17.916,33z M46.583,33v30H33.736c0.004-0.042,0.014-0.082,0.014-0.125V33h3.75V3    h5.333v30H46.583z M63,63H49.583V33h3.75V3H63V63z M3,3h8.166v30h3.75v29.875c0,0.043,0.009,0.083,0.013,0.125H3V3z" transform="matrix(0.4887282859849921 -0.6567286237566099 0.6567286237566099 0.4887282859849921 21.199922872596808 349.54401204053306)" id="L1_103" fill="#000000"/><g transform="matrix(0.10024191100250922 -0.13156751214087944 0.13156751214087944 0.10024191100250922 188.6299423826434 259.9946812920066)" id="L1_104"><path d="M80.181,161.262h20.157V0h28.667v161.262h20.158v160.589c0,0.231,0.048,0.446,0.071,0.673h-69.12    c0.023-0.227,0.071-0.441,0.071-0.673L80.181,161.262L80.181,161.262z" fill="#2b201b"/><path d="M234.277,161.262v161.262h-69.057c0.021-0.227,0.073-0.441,0.073-0.673V161.262h20.159V0h28.665v161.262H234.277z" fill="#2b201b"/><path d="M322.524,322.524 250.402,322.524 250.402,161.262 270.56,161.262 270.56,0 322.524,0z" fill="#2b201b"/><path d="M0,0h43.896v161.262h20.157v160.589c0,0.231,0.048,0.446,0.071,0.673H0V0z" fill="#2b201b"/></g><g transform="matrix(0.10196077741593582 0.07450979509100707 -0.07450979509100707 0.10196077741593582 51.971171110117034 97.82324970402914)" id="L1_105"><path d="m496 223.963h-480c-8.84 0-16 7.16-16 16v256c0 8.84 7.16 16 16 16h480c8.84 0 16-7.16 16-16v-256c0-8.84-7.16-16-16-16zm-400 128c8.84 0 16 7.16 16 16s-7.16 16-16 16-16-7.16-16-16 7.16-16 16-16zm-16-48c0-8.84 7.16-16 16-16s16 7.16 16 16-7.16 16-16 16-16-7.161-16-16zm16 112c8.84 0 16 7.16 16 16s-7.16 16-16 16h-16c-8.84 0-16-7.16-16-16s7.16-16 16-16zm64-64c8.84 0 16 7.16 16 16s-7.16 16-16 16-16-7.16-16-16 7.16-16 16-16zm-16-48c0-8.84 7.16-16 16-16s16 7.16 16 16-7.16 16-16 16-16-7.161-16-16zm16 112h192c8.84 0 16 7.16 16 16s-7.16 16-16 16h-192c-8.84 0-16-7.16-16-16s7.16-16 16-16zm64-64c8.84 0 16 7.16 16 16s-7.16 16-16 16-16-7.16-16-16 7.16-16 16-16zm-16-48c0-8.84 7.16-16 16-16s16 7.16 16 16-7.16 16-16 16-16-7.161-16-16zm80 48c8.84 0 16 7.16 16 16s-7.16 16-16 16-16-7.16-16-16 7.16-16 16-16zm-16-48c0-8.84 7.16-16 16-16s16 7.16 16 16-7.16 16-16 16-16-7.161-16-16zm80 48c8.84 0 16 7.16 16 16s-7.16 16-16 16-16-7.16-16-16 7.16-16 16-16zm-16-48c0-8.84 7.16-16 16-16s16 7.16 16 16-7.16 16-16 16-16-7.161-16-16zm96 144h-16c-8.84 0-16-7.16-16-16s7.16-16 16-16h16c8.84 0 16 7.16 16 16s-7.16 16-16 16zm-16-96c8.84 0 16 7.16 16 16s-7.16 16-16 16-16-7.16-16-16 7.16-16 16-16zm-16-48c0-8.84 7.16-16 16-16s16 7.16 16 16-7.16 16-16 16-16-7.161-16-16z" fill="#2b201b"/><circle cx="256" cy="151" r="24" fill="#2b201b"/><path d="m312.568 119.394c14.125 0 21.424-17.205 11.313-27.313-37.514-37.516-98.242-37.523-135.764 0-6.249 6.248-6.249 16.379 0 22.627 6.248 6.248 16.379 6.248 22.627 0 24.953-24.953 65.557-24.953 90.51 0 3.125 3.124 7.22 4.686 11.314 4.686z" fill="#2b201b"/><path d="m165.49 69.453c49.908-49.906 131.111-49.906 181.02 0 3.124 3.124 7.219 4.687 11.313 4.687 14.125 0 21.424-17.205 11.313-27.313-62.383-62.385-163.891-62.385-226.273 0-6.249 6.248-6.249 16.379 0 22.627 6.248 6.247 16.379 6.247 22.627-.001z" fill="#2b201b"/></g><g transform="matrix(0.10279480449087329 0.07709609857232153 -0.07709609857232153 0.10279480449087329 223.42113128485076 23.947928815822124)" id="L1_106"><path d="m431.832031 241v-33.074219c0-28.621093-23.285156-51.90625-51.90625-51.90625h-149.429687c-14.058594 0-25.496094-11.4375-25.496094-25.496093 0-14.058594 11.4375-25.5 25.496094-25.5h214.03125c31.734375 0 57.550781-25.816407 57.550781-57.550782v-47.472656h-30v47.472656c0 15.191406-12.359375 27.550782-27.550781 27.550782h-214.03125c-30.601563 0-55.496094 24.898437-55.496094 55.5 0 30.601562 24.894531 55.496093 55.496094 55.496093h149.429687c12.082031 0 21.90625 9.828125 21.90625 21.90625v33.074219h-401.832031v271h512v-271zm50.167969 241h-452v-211h452zm0 0" fill="#000000"/><path d="m64.832031 306.042969h30.332031v30.332031h-30.332031zm0 0" fill="#000000"/><path d="m123.5 306.042969h30.332031v30.332031h-30.332031zm0 0" fill="#000000"/><path d="m182.167969 306.042969h30.332031v30.332031h-30.332031zm0 0" fill="#000000"/><path d="m240.832031 306.042969h30.332031v30.332031h-30.332031zm0 0" fill="#000000"/><path d="m299.5 306.042969h30.332031v30.332031h-30.332031zm0 0" fill="#000000"/><path d="m358.167969 306.042969h30.332031v30.332031h-30.332031zm0 0" fill="#000000"/><path d="m416.832031 306.042969h30.332031v30.332031h-30.332031zm0 0" fill="#000000"/><path d="m64.832031 361.332031h30.332031v30.332031h-30.332031zm0 0" fill="#000000"/><path d="m123.5 361.332031h30.332031v30.332031h-30.332031zm0 0" fill="#000000"/><path d="m182.167969 361.332031h30.332031v30.332031h-30.332031zm0 0" fill="#000000"/><path d="m240.832031 361.332031h30.332031v30.332031h-30.332031zm0 0" fill="#000000"/><path d="m299.5 361.332031h30.332031v30.332031h-30.332031zm0 0" fill="#000000"/><path d="m358.167969 361.332031h30.332031v30.332031h-30.332031zm0 0" fill="#000000"/><path d="m416.832031 361.332031h30.332031v30.332031h-30.332031zm0 0" fill="#000000"/><path d="m64.832031 416.625h30.332031v30.332031h-30.332031zm0 0" fill="#000000"/><path d="m416.832031 416.625h30.332031v30.332031h-30.332031zm0 0" fill="#000000"/><path d="m123.5 416.789062h265v30h-265zm0 0" fill="#000000"/></g></defs><g fi:class="KUsePattern"><pattern id="pattern_L1_103" width="350" height="350" patternUnits="userSpaceOnUse"><use xlink:href="#L1_103" x="-350" y="-350"/><use xlink:href="#L1_103" x="0" y="-350"/><use xlink:href="#L1_103" x="350" y="-350"/><use xlink:href="#L1_103" x="-350" y="0"/><use xlink:href="#L1_103" x="0" y="0"/><use xlink:href="#L1_103" x="350" y="0"/><use xlink:href="#L1_103" x="-350" y="350"/><use xlink:href="#L1_103" x="0" y="350"/><use xlink:href="#L1_103" x="350" y="350"/></pattern><rect x="0" y="0" width="100%" height="100%" fill="url(#pattern_L1_103)"/></g><g fi:class="KUsePattern"><pattern id="pattern_L1_104" width="350" height="350" patternUnits="userSpaceOnUse"><use xlink:href="#L1_104" x="-350" y="-350"/><use xlink:href="#L1_104" x="0" y="-350"/><use xlink:href="#L1_104" x="350" y="-350"/><use xlink:href="#L1_104" x="-350" y="0"/><use xlink:href="#L1_104" x="0" y="0"/><use xlink:href="#L1_104" x="350" y="0"/><use xlink:href="#L1_104" x="-350" y="350"/><use xlink:href="#L1_104" x="0" y="350"/><use xlink:href="#L1_104" x="350" y="350"/></pattern><rect x="0" y="0" width="100%" height="100%" fill="url(#pattern_L1_104)"/></g><g fi:class="KUsePattern"><pattern id="pattern_L1_105" width="350" height="350" patternUnits="userSpaceOnUse"><use xlink:href="#L1_105" x="-350" y="-350"/><use xlink:href="#L1_105" x="0" y="-350"/><use xlink:href="#L1_105" x="350" y="-350"/><use xlink:href="#L1_105" x="-350" y="0"/><use xlink:href="#L1_105" x="0" y="0"/><use xlink:href="#L1_105" x="350" y="0"/><use xlink:href="#L1_105" x="-350" y="350"/><use xlink:href="#L1_105" x="0" y="350"/><use xlink:href="#L1_105" x="350" y="350"/></pattern><rect x="0" y="0" width="100%" height="100%" fill="url(#pattern_L1_105)"/></g><g fi:class="KUsePattern"><pattern id="pattern_L1_106" width="350" height="350" patternUnits="userSpaceOnUse"><use xlink:href="#L1_106" x="-350" y="-350"/><use xlink:href="#L1_106" x="0" y="-350"/><use xlink:href="#L1_106" x="350" y="-350"/><use xlink:href="#L1_106" x="-350" y="0"/><use xlink:href="#L1_106" x="0" y="0"/><use xlink:href="#L1_106" x="350" y="0"/><use xlink:href="#L1_106" x="-350" y="350"/><use xlink:href="#L1_106" x="0" y="350"/><use xlink:href="#L1_106" x="350" y="350"/></pattern><rect x="0" y="0" width="100%" height="100%" fill="url(#pattern_L1_106)"/></g></svg>